<svg width="969" height="969" viewBox="0 0 969 969" fill="none" xmlns="http://www.w3.org/2000/svg">
<circle cx="484.5" cy="484.5" r="484.5" fill="white"/>
<path d="M378.015 226.369C380.4 224.779 409.51 212.365 404.583 225.385C392.625 256.99 338.477 288.075 316.022 311.978C274.524 356.154 236.767 404.213 197.94 450.725C196.57 452.366 137.413 519.823 163.992 511.734C244.638 487.189 323.096 412.697 393.759 368.067C421.623 350.469 446.667 331.485 471.496 310.01C494.703 289.94 445.952 359.641 445.42 360.195C396.309 411.353 323.178 474.067 259.933 507.798C229.991 523.766 227.274 335.126 227.461 314.931C228.124 243.268 237.364 188.297 286.01 279.014C313.837 330.908 335.564 385.729 364.731 436.948C378.581 461.271 404.299 523.289 429.184 539.286C431.208 540.587 448.686 490.643 448.864 490.085C462.01 448.951 464.875 409.469 449.848 368.067C427.005 305.133 347.461 241.5 284.534 299.678C255.956 326.099 136.822 537.508 191.052 571.759C265.858 619.005 380.021 655.335 466.576 631.292C562.977 604.514 623.785 520.823 691.424 453.185C692.855 451.753 744.429 406.742 721.436 420.22C662.887 454.542 596.802 474.792 530.537 488.117C489.598 496.35 378.886 531.129 336.194 505.829C291.008 479.052 193.826 354.092 228.445 297.218C348.685 99.6809 457.661 564.309 474.941 620.467C501.999 708.408 551.572 583.887 579.738 547.158C636.936 472.572 697.443 389.393 687.488 289.838C682.538 240.335 552.471 286.391 532.505 295.742C430.729 343.409 364.047 434.201 282.566 507.798C267.976 520.975 264.416 506.413 260.917 490.085C241.888 401.281 247.604 302.57 282.566 218.497C298.419 180.372 329.05 122.684 368.667 102.875C425.959 74.2293 440.106 212.928 442.96 239.161C457.7 374.658 417.936 461.93 362.271 578.647C337.115 631.393 296.633 576.606 260.917 551.094C227.85 527.475 186.2 520.259 183.18 578.647C180.281 634.691 276.861 616.558 310.118 614.071C476.669 601.619 610.606 529.343 755.385 454.169C819.515 420.87 823.341 434.397 827.71 509.766C834.78 631.725 781.239 747.491 659.935 794.146C621.377 808.976 597.074 754.525 584.166 728.709C520.771 601.919 496.159 460.502 493.145 319.851C492.876 307.323 500.724 78.8216 525.617 101.399C611.346 179.153 572.1 397.475 563.01 497.465C558.15 550.928 540.688 632.716 484.289 658.352C416.272 689.268 453.283 590.484 461.656 565.362C488.073 486.111 524.746 412.018 564.978 339.039C571.814 326.638 614.413 265.613 565.962 289.838C409.373 368.133 298.246 520.55 206.796 664.256C199.951 675.012 175.284 699.141 203.844 691.808C272.189 674.26 337.647 642.795 398.187 607.183C445.982 579.068 494.818 548.369 534.965 509.766C541.275 503.699 600.829 435.001 598.434 447.773C577.552 559.146 490.229 669.516 439.024 769.546C419.992 806.724 353.437 817.999 317.498 793.654C274.51 764.533 243.686 715.667 215.16 673.604C203.8 656.853 126.063 560.921 140.867 535.35C145.568 527.231 298.956 648.198 316.022 660.812C360.597 693.758 401.781 731.755 448.864 761.182C466.7 772.329 590.414 641.948 613.195 626.863C665.232 592.406 687.184 575.213 673.22 653.924C664.959 700.483 647.99 743.257 631.399 787.258C623.896 807.157 619.529 818.978 614.179 838.919C611.499 848.908 615.032 874.484 606.307 868.931C587.868 857.197 587.089 777.588 585.642 761.674C580.291 702.815 581.706 643.568 581.706 584.551C581.706 548.886 560.7 400.519 618.115 486.641C671.166 566.218 685.862 667.141 627.955 749.865C601.617 787.49 622.736 658.032 627.955 647.036C648.093 604.602 671.704 548.195 699.788 510.75C737.357 460.658 586.49 566.314 537.425 605.215C511.695 625.616 420.084 725.222 386.379 680.984C345.332 627.109 337.328 607.354 346.527 533.382C362.293 406.597 431.485 222.941 556.122 163.392C598.76 143.021 630.125 163.728 638.287 208.165C663.598 345.967 563.826 428.016 516.761 544.206C504.331 574.894 512.89 552.152 520.697 541.254C556.227 491.661 619.031 460.544 670.268 430.552C702.553 411.654 755.144 369.837 794.745 368.559C829.199 367.448 793.836 452.238 790.809 460.073C746.382 575.062 663.131 720.534 543.33 771.514C479.826 798.537 512.632 688.301 528.569 669.176" stroke="#00FFFF" stroke-width="4" stroke-linecap="round"/>
<path d="M445.513 810C438.235 810 434.596 806.361 434.596 799.083V334.595C434.596 327.317 438.235 323.678 445.513 323.678H522.928C530.206 323.678 533.845 327.317 533.845 334.595V799.083C533.845 806.361 530.206 810 522.928 810H445.513Z" fill="black"/>
<circle cx="484.919" cy="223.908" r="63.9915" fill="black"/>
<circle cx="484.919" cy="223.908" r="63.9915" fill="black"/>
<mask id="mask0_846_125" style="mask-type:alpha" maskUnits="userSpaceOnUse" x="138" y="90" width="694" height="775">
<path d="M379.015 219.369C381.4 217.779 410.51 205.365 405.583 218.385C393.625 249.99 339.477 281.075 317.022 304.978C275.524 349.154 237.767 397.213 198.94 443.725C197.57 445.366 138.413 512.823 164.992 504.734C245.638 480.189 324.096 405.697 394.759 361.067C422.623 343.469 447.667 324.485 472.496 303.01C495.703 282.94 446.952 352.641 446.42 353.195C397.309 404.353 324.178 467.067 260.933 500.798C230.991 516.766 228.274 328.126 228.461 307.931C229.124 236.268 238.364 181.297 287.01 272.014C314.837 323.908 336.564 378.729 365.731 429.948C379.581 454.271 405.299 516.289 430.184 532.286C432.208 533.587 449.686 483.643 449.864 483.085C463.01 441.951 465.875 402.469 450.848 361.067C428.005 298.133 348.461 234.5 285.534 292.678C256.956 319.099 137.822 530.508 192.052 564.759C266.858 612.005 381.021 648.335 467.576 624.292C563.977 597.514 624.785 513.823 692.424 446.185C693.855 444.753 745.429 399.742 722.436 413.22C663.887 447.542 597.802 467.792 531.537 481.117C490.598 489.35 379.886 524.129 337.194 498.829C292.008 472.052 194.826 347.092 229.445 290.218C349.685 92.6809 458.661 557.309 475.941 613.467C502.999 701.408 552.572 576.887 580.738 540.158C637.936 465.572 698.443 382.393 688.488 282.838C683.538 233.335 553.471 279.391 533.505 288.742C431.729 336.409 365.047 427.201 283.566 500.798C268.976 513.975 265.416 499.413 261.917 483.085C242.888 394.281 248.604 295.57 283.566 211.497C299.419 173.372 330.05 115.684 369.667 95.8752C426.959 67.2293 441.106 205.928 443.96 232.161C458.7 367.658 418.936 454.93 363.271 571.647C338.115 624.393 297.633 569.606 261.917 544.094C228.85 520.475 187.2 513.259 184.18 571.647C181.281 627.691 277.861 609.558 311.118 607.071C477.669 594.619 611.606 522.343 756.385 447.169C820.515 413.87 824.341 427.397 828.71 502.766C835.78 624.725 782.239 740.491 660.935 787.146C622.377 801.976 598.074 747.525 585.166 721.709C521.771 594.919 497.159 453.502 494.145 312.851C493.876 300.323 501.724 71.8216 526.617 94.3992C612.346 172.153 573.1 390.475 564.01 490.465C559.15 543.928 541.688 625.716 485.289 651.352C417.272 682.268 454.283 583.484 462.656 558.362C489.073 479.111 525.746 405.018 565.978 332.039C572.814 319.638 615.413 258.613 566.962 282.838C410.373 361.133 299.246 513.55 207.796 657.256C200.951 668.012 176.284 692.141 204.844 684.808C273.189 667.26 338.647 635.795 399.187 600.183C446.982 572.068 495.818 541.369 535.965 502.766C542.275 496.699 601.829 428.001 599.434 440.773C578.552 552.146 491.229 662.516 440.024 762.546C420.992 799.724 354.437 810.999 318.498 786.654C275.51 757.533 244.686 708.667 216.16 666.604C204.8 649.853 127.063 553.921 141.867 528.35C146.568 520.231 299.956 641.198 317.022 653.812C361.597 686.758 402.781 724.755 449.864 754.182C467.7 765.329 591.414 634.948 614.195 619.863C666.232 585.406 688.184 568.213 674.22 646.924C665.959 693.483 648.99 736.257 632.399 780.258C624.896 800.157 620.529 811.978 615.179 831.919C612.499 841.908 616.032 867.484 607.307 861.931C588.868 850.197 588.089 770.588 586.642 754.674C581.291 695.815 582.706 636.568 582.706 577.551C582.706 541.886 561.7 393.519 619.115 479.641C672.166 559.218 686.862 660.141 628.955 742.865C602.617 780.49 623.736 651.032 628.955 640.036C649.093 597.602 672.704 541.195 700.788 503.75C738.357 453.658 587.49 559.314 538.425 598.215C512.695 618.616 421.084 718.222 387.379 673.984C346.332 620.109 338.328 600.354 347.527 526.382C363.293 399.597 432.485 215.941 557.122 156.392C599.76 136.021 631.125 156.728 639.287 201.165C664.598 338.967 564.826 421.016 517.761 537.206C505.331 567.894 513.89 545.152 521.697 534.254C557.227 484.661 620.031 453.544 671.268 423.552C703.553 404.654 756.144 362.837 795.745 361.559C830.199 360.448 794.836 445.238 791.809 453.073C747.382 568.062 664.131 713.534 544.33 764.514C480.826 791.537 513.632 681.301 529.569 662.176" stroke="black" stroke-width="4" stroke-linecap="round"/>
</mask>
<g mask="url(#mask0_846_125)">
<circle cx="483.992" cy="223.992" r="63.9915" fill="white"/>
</g>
<mask id="mask1_846_125" style="mask-type:alpha" maskUnits="userSpaceOnUse" x="137" y="97" width="694" height="775">
<path d="M378.015 226.369C380.4 224.779 409.51 212.365 404.583 225.385C392.625 256.99 338.477 288.075 316.022 311.978C274.524 356.154 236.767 404.213 197.94 450.725C196.57 452.366 137.413 519.823 163.992 511.734C244.638 487.189 323.096 412.697 393.759 368.067C421.623 350.469 446.667 331.485 471.496 310.01C494.703 289.94 445.952 359.641 445.42 360.195C396.309 411.353 323.178 474.067 259.933 507.798C229.991 523.766 227.274 335.126 227.461 314.931C228.124 243.268 237.364 188.297 286.01 279.014C313.837 330.908 335.564 385.729 364.731 436.948C378.581 461.271 404.299 523.289 429.184 539.286C431.208 540.587 448.686 490.643 448.864 490.085C462.01 448.951 464.875 409.469 449.848 368.067C427.005 305.133 347.461 241.5 284.534 299.678C255.956 326.099 136.822 537.508 191.052 571.759C265.858 619.005 380.021 655.335 466.576 631.292C562.977 604.514 623.785 520.823 691.424 453.185C692.855 451.753 744.429 406.742 721.436 420.22C662.887 454.542 596.802 474.792 530.537 488.117C489.598 496.35 378.886 531.129 336.194 505.829C291.008 479.052 193.826 354.092 228.445 297.218C348.685 99.6809 457.661 564.309 474.941 620.467C501.999 708.408 551.572 583.887 579.738 547.158C636.936 472.572 697.443 389.393 687.488 289.838C682.538 240.335 552.471 286.391 532.505 295.742C430.729 343.409 364.047 434.201 282.566 507.798C267.976 520.975 264.416 506.413 260.917 490.085C241.888 401.281 247.604 302.57 282.566 218.497C298.419 180.372 329.05 122.684 368.667 102.875C425.959 74.2293 440.106 212.928 442.96 239.161C457.7 374.658 417.936 461.93 362.271 578.647C337.115 631.393 296.633 576.606 260.917 551.094C227.85 527.475 186.2 520.259 183.18 578.647C180.281 634.691 276.861 616.558 310.118 614.071C476.669 601.619 610.606 529.343 755.385 454.169C819.515 420.87 823.341 434.397 827.71 509.766C834.78 631.725 781.239 747.491 659.935 794.146C621.377 808.976 597.074 754.525 584.166 728.709C520.771 601.919 496.159 460.502 493.145 319.851C492.876 307.323 500.724 78.8216 525.617 101.399C611.346 179.153 572.1 397.475 563.01 497.465C558.15 550.928 540.688 632.716 484.289 658.352C416.272 689.268 453.283 590.484 461.656 565.362C488.073 486.111 524.746 412.018 564.978 339.039C571.814 326.638 614.413 265.613 565.962 289.838C409.373 368.133 298.246 520.55 206.796 664.256C199.951 675.012 175.284 699.141 203.844 691.808C272.189 674.26 337.647 642.795 398.187 607.183C445.982 579.068 494.818 548.369 534.965 509.766C541.275 503.699 600.829 435.001 598.434 447.773C577.552 559.146 490.229 669.516 439.024 769.546C419.992 806.724 353.437 817.999 317.498 793.654C274.51 764.533 243.686 715.667 215.16 673.604C203.8 656.853 126.063 560.921 140.867 535.35C145.568 527.231 298.956 648.198 316.022 660.812C360.597 693.758 401.781 731.755 448.864 761.182C466.7 772.329 590.414 641.948 613.195 626.863C665.232 592.406 687.184 575.213 673.22 653.924C664.959 700.483 647.99 743.257 631.399 787.258C623.896 807.157 619.529 818.978 614.179 838.919C611.499 848.908 615.032 874.484 606.307 868.931C587.868 857.197 587.089 777.588 585.642 761.674C580.291 702.815 581.706 643.568 581.706 584.551C581.706 548.886 560.7 400.519 618.115 486.641C671.166 566.218 685.862 667.141 627.955 749.865C601.617 787.49 622.736 658.032 627.955 647.036C648.093 604.602 671.704 548.195 699.788 510.75C737.357 460.658 586.49 566.314 537.425 605.215C511.695 625.616 420.084 725.222 386.379 680.984C345.332 627.109 337.328 607.354 346.527 533.382C362.293 406.597 431.485 222.941 556.122 163.392C598.76 143.021 630.125 163.728 638.287 208.165C663.598 345.967 563.826 428.016 516.761 544.206C504.331 574.894 512.89 552.152 520.697 541.254C556.227 491.661 619.031 460.544 670.268 430.552C702.553 411.654 755.144 369.837 794.745 368.559C829.199 367.448 793.836 452.238 790.809 460.073C746.382 575.062 663.131 720.534 543.33 771.514C479.826 798.537 512.632 688.301 528.569 669.176" stroke="white" stroke-width="4" stroke-linecap="round"/>
</mask>
<g mask="url(#mask1_846_125)">
</g>
<mask id="mask2_846_125" style="mask-type:alpha" maskUnits="userSpaceOnUse" x="137" y="97" width="694" height="775">
<path d="M378.015 226.369C380.4 224.779 409.51 212.365 404.583 225.385C392.625 256.99 338.477 288.075 316.022 311.978C274.524 356.154 236.767 404.213 197.94 450.725C196.57 452.366 137.413 519.823 163.992 511.734C244.638 487.189 323.096 412.697 393.759 368.067C421.623 350.469 446.667 331.485 471.496 310.01C494.703 289.94 445.952 359.641 445.42 360.195C396.309 411.353 323.178 474.067 259.933 507.798C229.991 523.766 227.274 335.126 227.461 314.931C228.124 243.268 237.364 188.297 286.01 279.014C313.837 330.908 335.564 385.729 364.731 436.948C378.581 461.271 404.299 523.289 429.184 539.286C431.208 540.587 448.686 490.643 448.864 490.085C462.01 448.951 464.875 409.469 449.848 368.067C427.005 305.133 347.461 241.5 284.534 299.678C255.956 326.099 136.822 537.508 191.052 571.759C265.858 619.005 380.021 655.335 466.576 631.292C562.977 604.514 623.785 520.823 691.424 453.185C692.855 451.753 744.429 406.742 721.436 420.22C662.887 454.542 596.802 474.792 530.537 488.117C489.598 496.35 378.886 531.129 336.194 505.829C291.008 479.052 193.826 354.092 228.445 297.218C348.685 99.6809 457.661 564.309 474.941 620.467C501.999 708.408 551.572 583.887 579.738 547.158C636.936 472.572 697.443 389.393 687.488 289.838C682.538 240.335 552.471 286.391 532.505 295.742C430.729 343.409 364.047 434.201 282.566 507.798C267.976 520.975 264.416 506.413 260.917 490.085C241.888 401.281 247.604 302.57 282.566 218.497C298.419 180.372 329.05 122.684 368.667 102.875C425.959 74.2293 440.106 212.928 442.96 239.161C457.7 374.658 417.936 461.93 362.271 578.647C337.115 631.393 296.633 576.606 260.917 551.094C227.85 527.475 186.2 520.259 183.18 578.647C180.281 634.691 276.861 616.558 310.118 614.071C476.669 601.619 610.606 529.343 755.385 454.169C819.515 420.87 823.341 434.397 827.71 509.766C834.78 631.725 781.239 747.491 659.935 794.146C621.377 808.976 597.074 754.525 584.166 728.709C520.771 601.919 496.159 460.502 493.145 319.851C492.876 307.323 500.724 78.8216 525.617 101.399C611.346 179.153 572.1 397.475 563.01 497.465C558.15 550.928 540.688 632.716 484.289 658.352C416.272 689.268 453.283 590.484 461.656 565.362C488.073 486.111 524.746 412.018 564.978 339.039C571.814 326.638 614.413 265.613 565.962 289.838C409.373 368.133 298.246 520.55 206.796 664.256C199.951 675.012 175.284 699.141 203.844 691.808C272.189 674.26 337.647 642.795 398.187 607.183C445.982 579.068 494.818 548.369 534.965 509.766C541.275 503.699 600.829 435.001 598.434 447.773C577.552 559.146 490.229 669.516 439.024 769.546C419.992 806.724 353.437 817.999 317.498 793.654C274.51 764.533 243.686 715.667 215.16 673.604C203.8 656.853 126.063 560.921 140.867 535.35C145.568 527.231 298.956 648.198 316.022 660.812C360.597 693.758 401.781 731.755 448.864 761.182C466.7 772.329 590.414 641.948 613.195 626.863C665.232 592.406 687.184 575.213 673.22 653.924C664.959 700.483 647.99 743.257 631.399 787.258C623.896 807.157 619.529 818.978 614.179 838.919C611.499 848.908 615.032 874.484 606.307 868.931C587.868 857.197 587.089 777.588 585.642 761.674C580.291 702.815 581.706 643.568 581.706 584.551C581.706 548.886 560.7 400.519 618.115 486.641C671.166 566.218 685.862 667.141 627.955 749.865C601.617 787.49 622.736 658.032 627.955 647.036C648.093 604.602 671.704 548.195 699.788 510.75C737.357 460.658 586.49 566.314 537.425 605.215C511.695 625.616 420.084 725.222 386.379 680.984C345.332 627.109 337.328 607.354 346.527 533.382C362.293 406.597 431.485 222.941 556.122 163.392C598.76 143.021 630.125 163.728 638.287 208.165C663.598 345.967 563.826 428.016 516.761 544.206C504.331 574.894 512.89 552.152 520.697 541.254C556.227 491.661 619.031 460.544 670.268 430.552C702.553 411.654 755.144 369.837 794.745 368.559C829.199 367.448 793.836 452.238 790.809 460.073C746.382 575.062 663.131 720.534 543.33 771.514C479.826 798.537 512.632 688.301 528.569 669.176" stroke="white" stroke-width="4" stroke-linecap="round"/>
</mask>
<g mask="url(#mask2_846_125)">
<path d="M445.513 810C438.235 810 434.596 806.361 434.596 799.083V334.595C434.596 327.317 438.235 323.678 445.513 323.678H522.928C530.206 323.678 533.845 327.317 533.845 334.595V799.083C533.845 806.361 530.206 810 522.928 810H445.513Z" fill="white"/>
</g>
</svg>
