<svg width="100" height="100" viewBox="0 0 100 100" fill="none" xmlns="http://www.w3.org/2000/svg">
<path d="M15.3608 23.8396C15.1941 19.025 18.9462 14.5834 24.0191 14.5834H75.99C81.0629 14.5834 84.815 19.025 84.6462 23.8396C84.4858 28.4667 84.6941 34.4584 86.2025 39.3459C87.715 44.248 90.2671 47.3459 94.4462 47.7438V52.2584C90.2671 52.6563 87.7171 55.7542 86.2025 60.6563C84.6941 65.5417 84.4858 71.5355 84.6462 76.1625C84.8129 80.975 81.0608 85.4167 75.99 85.4167H24.0191C18.9483 85.4167 15.1941 80.975 15.3629 76.1605C15.5233 71.5334 15.315 65.5417 13.8066 60.6542C12.2941 55.7521 9.73581 52.6542 5.55664 52.2563V47.7417C9.73581 47.3438 12.2921 44.2459 13.8066 39.3438C15.3129 34.4584 15.5233 28.4667 15.3608 23.8396Z" fill="#7C4DFF"/>
<path d="M56.4014 48.8833V48.825C60.2618 48.1583 63.2743 44.5396 63.2743 40.5541C63.2743 37.7375 62.191 35.35 60.141 33.6541C58.0973 31.9625 55.2306 31.0687 51.8473 31.0687H36.3535V68.9166H51.9264C55.9723 68.9166 59.3327 67.9291 61.641 66.0583C63.9514 64.1854 65.1743 61.4604 65.1743 58.1771C65.1723 53.2166 61.6514 49.4916 56.4014 48.8833ZM49.1452 47.1H42.5181V36.0208H50.4014C54.7264 36.0208 57.1077 37.9187 57.1077 41.3646C57.1098 45.0625 54.2806 47.1 49.1452 47.1ZM42.5181 51.7375H50.3493C56.0077 51.7375 58.8743 53.7812 58.8743 57.8125C58.8743 61.8375 56.0473 63.9646 50.6973 63.9646H42.5181V51.7375Z" fill="white"/>
</svg>
