<svg width="100" height="100" viewBox="0 0 100 100" fill="none" xmlns="http://www.w3.org/2000/svg">
<path d="M20.8328 25L27.0828 77.0833L10.3766 60.3771C7.89948 57.9 7.2349 54.1354 8.71823 50.9604L20.8328 25Z" fill="#1565C0"/>
<path d="M56.9152 13.1645C55.1548 11.4041 52.7694 10.4166 50.2819 10.4166C48.7298 10.4166 47.2007 10.802 45.834 11.5375L20.834 25V67.3812C20.834 69.5916 21.7111 71.7104 23.2757 73.2729L27.084 77.0833H72.9173V66.6666L87.5006 43.75L56.9152 13.1645Z" fill="#42A5F5"/>
<path d="M20.834 25H65.2986C67.509 25 69.6277 25.8771 71.1902 27.4417L87.5006 43.75V77.0833H72.9173L20.834 25Z" fill="#1565C0"/>
<path d="M72.9173 77.0834H27.084L39.584 89.5834H72.9173V77.0834Z" fill="#85CBF8"/>
</svg>
