<svg width="100" height="100" viewBox="0 0 100 100" fill="none" xmlns="http://www.w3.org/2000/svg">
<path d="M86.0588 75.5482C84.9955 76.0605 83.8218 76.0593 82.7591 75.545C81.6964 75.0307 80.8182 74.0387 80.2902 72.7562L69.788 54.2558L68.266 51.6693L56.0804 72.7795C55.5841 74.0082 54.7536 74.9645 53.744 75.4698C52.7344 75.9751 51.615 75.9947 50.5949 75.5249L66.2964 48.6913L51.6908 24.4518C52.741 23.9697 53.8895 23.9633 54.943 24.4337C55.9964 24.9041 56.8905 25.8225 57.4746 27.0344L68.3603 45.7636L79.307 27.1119C79.807 25.9051 80.6378 24.9745 81.6413 24.4969C82.6448 24.0193 83.7511 24.0281 84.7499 24.5216L79.0817 34.1034L71.4045 46.8339C71.1912 47.0761 71.0206 47.3731 70.9038 47.7052C70.787 48.0373 70.7266 48.3971 70.7266 48.7611C70.7266 49.125 70.787 49.4848 70.9038 49.817C71.0206 50.1491 71.1912 50.446 71.4045 50.6883L86.0284 75.5521L86.0588 75.5482ZM13.0061 48.3578L14.2847 40.3116C17.7976 24.4014 32.1171 17.7822 41.9678 27.6315C47.7364 33.4054 49.1763 41.5796 48.8932 50.793H16.3973C15.8706 67.246 25.1917 77.1807 37.1094 72.1048C39.0414 71.2189 40.7707 69.7364 42.1424 67.7901C43.5142 65.8438 44.4855 63.4945 44.9693 60.9525C45.5995 58.37 46.6375 57.9279 48.5431 58.6725C48.2256 61.8226 47.3514 64.8401 45.9863 67.4978C44.6212 70.1555 42.8008 72.3843 40.6619 74.0165C37.129 76.4782 33.0755 77.4538 29.081 76.8041C25.0865 76.1543 21.3555 73.9123 18.4216 70.3986C15.5207 66.2393 13.7674 60.9855 13.4293 55.4385C13.4293 54.5272 13.1857 53.6741 13.0213 52.8559C13.0065 51.3579 12.9994 49.8598 13 48.3617L13.0061 48.3578ZM16.4368 47.2488H45.8247C45.6421 35.321 39.7335 26.8599 31.8522 26.7823C23.0791 26.6272 16.8021 34.9022 16.4155 47.1945L16.4368 47.2488Z" fill="black"/>
</svg>
