<svg width="100" height="100" viewBox="0 0 100 100" fill="none" xmlns="http://www.w3.org/2000/svg">
<path d="M60.1594 42.5217H48.0604V19H60.1594C66.6889 19 72 24.2748 72 30.7595C72 37.2443 66.6889 42.5217 60.1594 42.5217ZM51.9396 38.6691H60.1594C64.5502 38.6691 68.1208 35.1202 68.1208 30.7621C68.1208 26.404 64.5476 22.8552 60.1594 22.8552H51.9396V38.6691ZM51.9396 42.5217H39.8432C33.3138 42.5217 28.0026 37.2469 28.0026 30.7621C28.0026 24.2774 33.3138 19 39.8432 19H51.9422V42.5217H51.9396ZM39.8432 22.8526C35.4524 22.8526 31.8818 26.4014 31.8818 30.7595C31.8818 35.1176 35.4524 38.6691 39.8432 38.6691H48.0631V22.8526H39.8432ZM51.9396 62.1881H39.8432C33.3138 62.1881 28.0026 56.9133 28.0026 50.4286C28.0026 43.9438 33.3138 38.6691 39.8432 38.6691H51.9422V62.1881H51.9396ZM39.8432 42.5217C35.4524 42.5217 31.8818 46.0705 31.8818 50.4286C31.8818 54.7867 35.4551 58.3355 39.8432 58.3355H48.0631V42.5217H39.8432ZM39.9065 81.8571C33.3428 81.8571 28 76.5824 28 70.0976C28 63.6129 33.3111 58.3381 39.8406 58.3381H51.9396V69.9693C51.9396 76.5248 46.5414 81.8571 39.9065 81.8571ZM39.8432 62.1881C37.7326 62.1909 35.7092 63.0248 34.2167 64.507C32.7243 65.9893 31.8846 67.9988 31.8818 70.095C31.8818 74.4557 35.4815 78.0019 39.9091 78.0019C44.4054 78.0019 48.0657 74.3981 48.0657 69.9667V62.1881H39.8432ZM60.1594 62.1881H59.901C53.3715 62.1881 48.0604 56.9133 48.0604 50.4286C48.0604 43.9438 53.3715 38.6691 59.901 38.6691H60.1594C66.6889 38.6691 72 43.9438 72 50.4286C72 56.9133 66.6889 62.1881 60.1594 62.1881ZM59.9036 42.5217C55.5129 42.5217 51.9422 46.0705 51.9422 50.4286C51.9422 54.7867 55.5155 58.3355 59.9036 58.3355H60.1621C64.5528 58.3355 68.1235 54.7867 68.1235 50.4286C68.1235 46.0705 64.5476 42.5217 60.1594 42.5217H59.9036Z" fill="#F24E1E"/>
</svg>
