<svg width="100" height="100" viewBox="0 0 100 100" fill="none" xmlns="http://www.w3.org/2000/svg">
<path d="M23.8416 62.2819L31.4292 13.4804C31.4836 13.1184 31.6509 12.7828 31.9072 12.5214C32.1635 12.2601 32.4958 12.0862 32.8566 12.0247C33.2175 11.9632 33.5886 12.0172 33.917 12.1789C34.2454 12.3406 34.5144 12.6018 34.6856 12.9254L42.8444 28.2322L23.8416 62.2819ZM77.7219 74.127L70.5032 29.2107C70.4537 28.8933 70.3169 28.5959 70.1081 28.3517C69.8993 28.1075 69.6268 27.9262 69.3209 27.828C69.015 27.7299 68.6878 27.7187 68.376 27.7957C68.0641 27.8727 67.7797 28.035 67.5547 28.2643L22 74.1302L47.2045 88.3334C47.9823 88.7704 48.8596 89 49.7519 89C50.6441 89 51.5214 88.7704 52.2993 88.3334L77.7219 74.127ZM57.24 34.9311L51.4009 23.7598C51.2536 23.4789 51.0322 23.2436 50.7608 23.0794C50.4893 22.9153 50.1782 22.8285 49.8609 22.8285C49.5437 22.8285 49.2325 22.9153 48.9611 23.0794C48.6896 23.2436 48.4683 23.4789 48.321 23.7598L22.6866 69.6995L57.24 34.9311Z" fill="#FFCA28"/>
</svg>
