<svg width="100" height="100" viewBox="0 0 100 100" fill="none" xmlns="http://www.w3.org/2000/svg">
<path d="M78.9381 56.9666C78.9044 56.8671 78.8578 56.7721 78.7996 56.6838C78.4576 56.0587 77.6266 55.872 76.3212 56.1325C72.2538 56.9427 70.6788 56.4441 70.1078 56.0872C73.4094 51.2227 76.1229 45.3474 77.5894 39.8667C78.2571 37.3712 79.5531 31.4979 77.8901 28.6291C77.7838 28.4327 77.6596 28.246 77.5188 28.071C74.3467 24.1579 69.6911 22.0589 64.0553 22.0012C60.3781 21.9637 57.2394 22.8232 56.3892 23.1398C55.9681 23.0639 55.5448 22.9993 55.12 22.946C54.055 22.7598 52.976 22.6583 51.8937 22.6424C48.9853 22.5987 46.472 23.2699 44.3907 24.6389C42.2816 23.8763 32.6095 20.732 26.6237 24.826C23.2806 27.1124 21.7373 31.1991 22.0365 36.9727C22.1371 38.9155 23.2835 44.891 25.0927 50.6138C26.2239 54.1917 27.4021 57.0308 28.6191 59.121C29.9796 61.4822 31.389 62.9051 32.8366 63.3711C33.9373 63.7252 35.6232 63.7133 37.4078 61.6423C39.3789 59.354 41.3202 57.306 42.1918 56.4009C43.2623 56.9602 44.4217 57.2619 45.6115 57.2968C45.6117 57.3 45.612 57.3033 45.6125 57.3065C45.4053 57.5448 45.2025 57.7866 45.0043 58.0318C44.1706 59.0536 43.9971 59.2661 41.3136 59.7995C40.5504 59.9515 38.5228 60.3551 38.4932 61.7269C38.4871 62.0176 38.5742 62.2752 38.7193 62.503C39.2775 63.5079 40.9866 63.9511 41.2164 64.0066C44.4995 64.7987 47.3776 64.2251 49.5106 62.3947C49.4688 67.6933 49.7012 72.886 50.3603 74.4773C50.9045 75.7904 52.2345 79.0005 56.435 79C57.0512 79 57.7297 78.9309 58.4759 78.7765C62.8597 77.869 64.7634 75.9987 65.4997 71.875C65.8694 69.8071 66.4877 65.0462 66.8252 62.1347C66.8668 61.9677 66.9131 61.848 66.9655 61.8112C66.9672 61.81 67.1369 61.6993 68.0164 61.8841C68.0524 61.8916 68.0888 61.897 68.1254 61.9002L68.7501 61.9532L68.7867 61.9556C70.87 62.0468 73.4891 61.6169 75.0139 60.9324C76.5977 60.2228 79.4562 58.4807 78.9381 56.9666ZM26.8111 50.2067C24.982 44.4217 23.9133 38.6046 23.8287 36.9734C23.5615 31.8164 24.8548 28.2265 27.6722 26.3033C32.1908 23.2191 39.5789 25.0189 42.6989 25.9945C42.691 26.0021 42.6826 26.009 42.6748 26.0168C37.6959 30.8713 37.814 39.1648 37.8263 39.6719C37.8258 39.8674 37.8425 40.1443 37.8661 40.5252C37.9517 41.9201 38.1112 44.5162 37.6853 47.4564C37.2895 50.1886 38.1618 52.8629 40.0786 54.7933C40.2768 54.993 40.484 55.1806 40.698 55.3571C39.8448 56.2392 37.9909 58.1895 36.0176 60.4814C34.6209 62.1023 33.6565 61.7917 33.3394 61.6896C32.3753 61.3792 31.3393 60.2952 30.2935 58.5491C29.1136 56.5565 27.9231 53.7238 26.8111 50.2067ZM41.5898 62.2886C41.1689 62.1869 40.7851 62.0197 40.5266 61.8677C40.7453 61.7741 41.1106 61.6535 41.7156 61.5331C44.8727 60.9058 45.3603 60.4629 46.425 59.1576C46.6691 58.8583 46.9456 58.5194 47.3287 58.1064C47.4111 58.0172 47.4729 57.9121 47.51 57.7981C47.9302 57.4388 48.1801 57.5371 48.5848 57.6991C48.9686 57.8525 49.3421 58.3166 49.4939 58.8277C49.5654 59.069 49.6461 59.5271 49.3827 59.8831C47.1579 62.8894 43.9172 62.8505 41.5898 62.2886ZM46.7414 52.817L46.6123 53.1519C46.2851 53.9988 45.9807 54.7862 45.792 55.534C44.1501 55.5291 42.5525 54.8519 41.3379 53.6283C39.7932 52.0725 39.0915 49.9081 39.4128 47.6899C39.8626 44.5836 39.6965 41.8788 39.6072 40.4257C39.5949 40.2222 39.5838 40.0441 39.5772 39.9035C40.3047 39.281 43.6756 37.5375 46.0791 38.069C47.1761 38.3117 47.8446 39.0326 48.1223 40.273C49.5605 46.6945 48.3127 49.3709 47.31 51.5217C47.1033 51.9649 46.9082 52.3836 46.7414 52.817ZM64.8573 63.6767C64.8158 64.0966 64.7693 64.5697 64.7053 65.092L64.3461 66.133C64.3176 66.2155 64.3025 66.3018 64.3013 66.3888C64.2868 67.5162 64.1685 67.9299 64.0184 68.4533C63.8624 68.9977 63.6856 69.615 63.5771 70.9649C63.3064 74.3239 61.4166 76.2533 57.6304 77.0366C53.902 77.8087 53.2407 75.8567 52.6579 74.135C52.5982 73.9546 52.5351 73.7751 52.4687 73.5969C51.9388 72.2056 51.9985 70.2436 52.0815 67.5285C52.122 66.1957 52.0202 63.0129 51.2691 61.2438C51.2799 60.5474 51.2952 59.8404 51.3159 59.1258C51.3184 59.0352 51.3056 58.9449 51.2782 58.8583C51.2544 58.6914 51.2183 58.5263 51.1702 58.3643C50.8686 57.3471 50.1337 56.4962 49.252 56.1435C48.9017 56.0033 48.2586 55.7464 47.4861 55.9371C47.6509 55.2816 47.9366 54.5418 48.2463 53.7404L48.3764 53.4032C48.5228 53.0232 48.7061 52.6297 48.9005 52.2128C49.9497 49.9623 51.3867 46.8803 49.827 39.917C49.2429 37.309 47.292 36.0355 44.3349 36.3312C42.5619 36.5084 40.9401 37.1991 40.131 37.595C39.9687 37.6743 39.8081 37.7568 39.6493 37.8422C39.8751 35.2145 40.7283 30.3037 43.9194 27.1967C44.1564 26.9662 44.4055 26.7474 44.6655 26.5412C44.7947 26.5169 44.9164 26.4646 45.0215 26.3883C46.8726 25.0331 49.1903 24.3681 51.9149 24.4111C52.9214 24.427 53.8872 24.4916 54.8036 24.6035C59.5739 25.4452 62.7842 28.0396 64.7326 30.2624C66.7359 32.5479 67.8206 34.8497 68.2536 36.0914C64.9983 35.7717 62.7837 36.3925 61.6611 37.9415C59.2191 41.3114 62.997 47.8521 64.8128 50.9954C65.1457 51.5716 65.4333 52.0694 65.5236 52.281C66.1147 53.6644 66.8803 54.5878 67.4393 55.2621C67.6105 55.4687 67.7768 55.6692 67.903 55.844C66.917 56.1183 65.1457 56.7524 65.3071 59.9219C65.2768 60.2931 65.203 60.9833 65.1019 61.857C64.9885 62.3503 64.9292 62.9502 64.8573 63.6767ZM67.0481 59.8266C66.9485 57.8516 67.7101 57.6452 68.5161 57.4267C68.6276 57.3972 68.7383 57.365 68.8482 57.3303C68.9522 57.4192 69.0625 57.5009 69.1784 57.5749C70.5814 58.4691 73.0711 58.5755 76.5756 57.8941C76.0796 58.3142 75.299 58.8427 74.2303 59.3217C73.2221 59.7737 71.5347 60.1126 69.9317 60.1852C68.1611 60.265 67.2602 59.9936 67.0481 59.8266ZM68.4492 37.8075C68.4347 38.6407 68.3158 39.3969 68.1899 40.1866C68.0546 41.0359 67.9143 41.9141 67.8789 42.98C67.844 44.0174 67.9783 45.0959 68.1082 46.139C68.3705 48.2457 68.6396 50.4147 67.5977 52.5548C67.4248 52.2589 67.2706 51.9531 67.1362 51.639C67.0065 51.336 66.7256 50.8491 66.3364 50.1756C64.8219 47.5533 61.2748 41.4128 63.0907 38.9072C64.0243 37.6182 66.3893 37.5627 68.4492 37.8075ZM69.0111 54.4651C68.9416 54.3797 68.8717 54.2946 68.8012 54.21L68.7139 54.1045C70.5005 51.2557 70.1511 48.4373 69.8402 45.9381C69.7125 44.9126 69.5919 43.944 69.6224 43.0344C69.6542 42.0699 69.7863 41.243 69.914 40.4431C70.0712 39.4574 70.2308 38.4379 70.1868 37.2356C70.2198 37.1095 70.233 36.9606 70.2158 36.7839C70.1034 35.6308 68.74 32.1812 65.9612 29.058C64.4664 27.3782 62.2966 25.5022 59.3461 24.2142C60.6379 23.961 62.379 23.7309 64.3264 23.7727C69.3735 23.881 73.3666 25.7048 76.1948 29.1934C76.2548 29.2691 76.3097 29.3486 76.3588 29.4314C78.1378 32.6509 75.6794 44.3347 69.0111 54.4651ZM47.3208 39.9391C47.2593 40.3652 46.5608 40.9425 45.7928 40.9425C45.7262 40.9426 45.6597 40.9381 45.5938 40.9292C45.133 40.8675 44.6675 40.5872 44.3492 40.1797C44.2365 40.036 44.0532 39.7569 44.0896 39.5042C44.1031 39.409 44.1538 39.2703 44.3172 39.1508C44.608 38.9385 45.1827 38.8597 45.8169 38.9449C46.595 39.0497 47.3978 39.4052 47.3208 39.9391ZM66.8311 38.962C66.8584 39.1501 66.7106 39.4394 66.4545 39.6987C66.2864 39.869 65.9329 40.1645 65.451 40.2288C65.3898 40.237 65.3282 40.2412 65.2665 40.2412C64.5444 40.2412 63.9345 39.6845 63.887 39.3584C63.828 38.9392 64.5368 38.6207 65.2674 38.5224C65.9981 38.4241 66.7709 38.5433 66.8311 38.962Z" fill="#4169E1"/>
</svg>
