<svg width="100" height="100" viewBox="0 0 100 100" fill="none" xmlns="http://www.w3.org/2000/svg">
<path d="M83.6766 46.8796L53.1125 16.319C51.3508 14.5603 48.4983 14.5603 46.7307 16.319L40.3986 22.6627L48.4487 30.7126C50.33 30.0856 52.4708 30.5085 53.9583 31.9989C55.4633 33.501 55.8775 35.668 55.2358 37.5405L62.9884 45.2987C64.8697 44.6483 67.0339 45.0712 68.5301 46.5675C70.6331 48.6675 70.6331 52.0624 68.5301 54.1624C66.433 56.2595 63.0438 56.2595 60.9467 54.1624C59.3746 52.5845 58.9809 50.2629 59.7684 48.3408L52.5087 41.1192V60.1503C53.0221 60.4011 53.5062 60.7423 53.9321 61.1652C56.0117 63.2681 56.0117 66.6573 53.9321 68.7485C51.835 70.8514 48.4224 70.8514 46.3224 68.7485C44.2253 66.6514 44.2253 63.2681 46.3224 61.1711C46.8533 60.6461 47.4512 60.2494 48.087 59.9869V40.7692C47.4541 40.5038 46.8503 40.1217 46.337 39.5996C44.7474 38.0101 44.3653 35.6855 45.182 33.7401L37.2719 25.7923L16.3125 46.7366C14.5625 48.5012 14.5625 51.3566 16.3125 53.1212L46.8795 83.6788C48.6412 85.4404 51.4937 85.4404 53.2554 83.6788L83.6766 53.2582C85.4412 51.4995 85.4412 48.6441 83.6766 46.8796Z" fill="#F05032"/>
</svg>
