<svg width="100" height="100" viewBox="0 0 100 100" fill="none" xmlns="http://www.w3.org/2000/svg">
<path d="M13 13H88V88H13V13ZM81.8563 70.1125C81.3094 66.6906 79.0813 63.8156 72.4719 61.1344C70.1719 60.0562 67.6156 59.3062 66.8562 57.5719C66.5719 56.5406 66.5281 55.9781 66.7125 55.3687C67.1812 53.35 69.5719 52.7437 71.4469 53.3062C72.6656 53.6812 73.7906 54.6188 74.4969 56.1188C77.7281 54.0063 77.7281 54.0063 79.9813 52.6031C79.1375 51.2906 78.7187 50.725 78.15 50.1656C76.1812 47.9625 73.5594 46.8375 69.2937 46.9344L67.0906 47.2125C64.9781 47.7281 62.9656 48.8531 61.7469 50.3531C58.1844 54.3875 59.2125 61.4187 63.525 64.325C67.7906 67.5125 74.0281 68.2125 74.825 71.2156C75.575 74.8719 72.1063 76.0437 68.6813 75.6219C66.1469 75.0594 64.7437 73.7906 63.1969 71.4469L57.4781 74.7312C58.1344 76.2312 58.8844 76.8844 60.0094 78.1969C65.4469 83.6844 79.0406 83.4031 81.4812 75.0594C81.5719 74.7781 82.2313 72.8562 81.7125 69.9031L81.8563 70.1125ZM53.7844 47.4719H46.7594C46.7594 53.5281 46.7312 59.5469 46.7312 65.6125C46.7312 69.4625 46.9281 72.9969 46.3 74.0844C45.2688 76.2375 42.6125 75.9625 41.4063 75.5844C40.1688 74.9719 39.5406 74.1281 38.8125 72.9125C38.6156 72.5844 38.4688 72.3 38.4156 72.3L32.7125 75.8156C33.6656 77.7844 35.0562 79.4781 36.85 80.5563C39.5219 82.15 43.1125 82.6656 46.8719 81.8219C49.3187 81.1156 51.4281 79.6625 52.5312 77.4125C54.125 74.5062 53.7875 70.9438 53.7719 66.9563C53.8094 60.5375 53.7719 54.1156 53.7719 47.6469L53.7844 47.4719Z" fill="#F7DF1E"/>
</svg>
