<svg width="100" height="100" viewBox="0 0 100 100" fill="none" xmlns="http://www.w3.org/2000/svg">
<path d="M62.2984 32.5559C61.9809 32.5559 61.7655 32.5945 61.5418 32.647V32.6829H61.5805C61.7296 32.9701 61.9836 33.1799 62.1714 33.4367C62.3205 33.7322 62.4475 34.0276 62.5966 34.3203L62.6353 34.2789C62.8948 34.0967 63.0218 33.804 63.0218 33.3594C62.9114 33.2296 62.8948 33.0999 62.8009 32.9728C62.6905 32.7878 62.453 32.6967 62.3039 32.5504L62.2984 32.5559ZM32.9324 68.9879H30.3728C30.3008 64.92 30.052 60.8571 29.6272 56.8108H29.6051L25.7118 68.9879H23.7651L19.8993 56.8108H19.8717C19.5693 60.8634 19.3898 64.9243 19.3333 68.9879H17C17.1519 63.5593 17.5302 58.4675 18.1321 53.7181H21.3076L24.9938 64.9399H25.0159L28.7353 53.7181H31.7589C32.4271 59.2821 32.8192 64.3766 32.9407 68.9879H32.9324ZM44.0244 57.722C42.9807 63.3687 41.6055 67.4775 39.9046 70.0372C38.5737 72.0142 37.1157 73 35.5335 73C35.1111 73 34.5947 72.873 33.9707 72.6189V71.2549C34.2744 71.3018 34.6334 71.3267 35.0365 71.3267C35.7765 71.3267 36.3702 71.1196 36.8231 70.7137C37.367 70.2167 37.6376 69.6589 37.6376 69.0431C37.6376 68.6151 37.425 67.7453 37.0025 66.4365L34.2026 57.722H36.7154L38.7228 64.2385C39.1756 65.7186 39.3662 66.7513 39.2889 67.3394C40.3934 64.4014 41.161 61.1901 41.5945 57.722H44.0244ZM78.0569 68.9879H70.7948V53.7181H73.2385V67.1102H78.0569V68.9879ZM68.8895 69.3607L66.0841 67.98C66.3326 67.7702 66.5728 67.5438 66.7882 67.2897C67.9838 65.8925 68.5775 63.8161 68.5775 61.0686C68.5775 56.0155 66.5949 53.4862 62.627 53.4862C60.6831 53.4862 59.1644 54.1268 58.0709 55.4108C56.8836 56.8135 56.2871 58.8789 56.2871 61.6098C56.2871 64.2938 56.8118 66.2653 57.8721 67.5189C58.8385 68.651 60.2937 69.2171 62.2432 69.2171C62.9721 69.2171 63.6404 69.126 64.2451 68.9465L67.9037 71.0782L68.8978 69.3607H68.8895ZM59.7995 65.9312C59.1782 64.9371 58.8689 63.3356 58.8689 61.1376C58.8689 57.2912 60.0397 55.3666 62.3757 55.3666C63.5989 55.3666 64.5019 55.8277 65.0735 56.7472C65.692 57.7468 66.0012 59.3318 66.0012 61.5049C66.0012 65.3817 64.8305 67.3256 62.4944 67.3256C61.2657 67.3256 60.3683 66.8645 59.7939 65.945L59.7995 65.9312ZM55.2213 64.7577C55.2213 66.0554 54.7464 67.1213 53.7965 67.9497C52.8466 68.778 51.5792 69.1922 49.9749 69.1922C48.4756 69.1922 47.0369 68.7173 45.6315 67.7702L46.2859 66.4558C47.4953 67.0633 48.586 67.3615 49.5718 67.3615C50.4885 67.3615 51.2092 67.1599 51.7338 66.754C51.996 66.5564 52.2078 66.2995 52.3518 66.0043C52.4957 65.7092 52.5678 65.3842 52.5622 65.0559C52.5622 64.1447 51.9271 63.3715 50.7729 62.7226C49.7015 62.1345 47.5616 60.9085 47.5616 60.9085C46.3963 60.0608 45.8165 59.1523 45.8165 57.6585C45.8165 56.4159 46.25 55.4218 47.1143 54.6625C47.984 53.8949 49.1024 53.5166 50.483 53.5166C51.8967 53.5166 53.189 53.8921 54.3487 54.6487L53.7606 55.963C52.8339 55.556 51.8347 55.34 50.8226 55.328C50.0412 55.328 49.4365 55.5157 49.0168 55.8968C48.8038 56.0732 48.6321 56.2942 48.5138 56.5442C48.3954 56.7942 48.3334 57.0671 48.332 57.3437C48.332 58.2494 48.9781 59.028 50.171 59.6907C51.2561 60.2844 53.4486 61.5408 53.4486 61.5408C54.6442 62.383 55.2379 63.2804 55.2379 64.7659L55.2213 64.7577ZM81.1274 48.5988C79.6501 48.5601 78.5042 48.7092 77.546 49.1179C77.2699 49.2283 76.8281 49.2283 76.7895 49.579C76.9413 49.7254 76.9634 49.9656 77.0932 50.1699C77.3141 50.5399 77.6952 51.0342 78.0486 51.2938C78.4352 51.5975 78.8217 51.8902 79.2277 52.1498C79.9456 52.5916 80.7602 52.8539 81.4643 53.2984C81.8647 53.558 82.2733 53.8866 82.6792 54.1627C82.8808 54.3008 83.0106 54.5493 83.2701 54.6376V54.5824C83.1431 54.4167 83.1045 54.1765 82.9802 53.9915C82.7952 53.8065 82.6102 53.6408 82.4279 53.4586C81.8858 52.7442 81.2388 52.1158 80.5089 51.5947C79.918 51.1916 78.6257 50.6283 78.3827 49.9518L78.3468 49.9131C78.75 49.8772 79.2304 49.7309 79.617 49.6204C80.2438 49.4548 80.8181 49.4907 81.467 49.3278C81.7597 49.2532 82.0552 49.1621 82.3506 49.0682V48.9025C82.0193 48.5712 81.7708 48.1211 81.4284 47.8118C80.4727 46.9764 79.4535 46.2166 78.3799 45.5393C77.8001 45.1693 77.0656 44.9318 76.4554 44.6171C76.2345 44.5066 75.8644 44.4514 75.7374 44.2664C75.4061 43.8632 75.2128 43.3275 74.9781 42.8471C74.4359 41.7953 73.9321 40.7241 73.4677 39.6357C73.1363 38.9123 72.9348 38.1916 72.5288 37.5289C70.6236 34.3894 68.5609 32.4869 65.3882 30.6258C64.7062 30.2392 63.8889 30.0735 63.0246 29.8692C62.5635 29.8471 62.1023 29.814 61.644 29.7946C61.3402 29.6648 61.0475 29.3142 60.788 29.1457C59.7387 28.483 57.0216 27.0472 56.2485 28.9469C55.7515 30.1453 56.9857 31.3271 57.4137 31.9346C57.7313 32.3571 58.1317 32.8403 58.3526 33.3152C58.4823 33.6355 58.5182 33.9641 58.648 34.2982C58.9407 35.11 59.2196 36.0157 59.6062 36.7751C59.8077 37.1617 60.0286 37.5676 60.2882 37.9155C60.4373 38.1171 60.6913 38.2109 60.7493 38.5423C60.4898 38.9178 60.4732 39.4645 60.3241 39.9229C59.6614 42.0132 59.921 44.5977 60.8598 46.1357C61.1552 46.5941 61.8594 47.6103 62.8009 47.2209C63.6293 46.8896 63.4471 45.8403 63.6845 44.9153C63.7398 44.6944 63.7039 44.548 63.8171 44.3989V44.4403C64.0766 44.9594 64.3362 45.4537 64.5737 45.9728C65.1425 46.8785 66.1365 47.8173 66.9677 48.4442C67.4095 48.7755 67.7602 49.3498 68.3124 49.5542V49.499H68.271C68.1523 49.3388 67.9949 49.2615 67.8458 49.1317C67.4956 48.789 67.1725 48.4197 66.8793 48.0272C66.1013 46.9642 65.4115 45.8394 64.8167 44.664C64.5129 44.0841 64.2589 43.4601 64.0159 42.8885C63.9054 42.6676 63.9054 42.3363 63.7204 42.2258C63.4443 42.6289 63.0384 42.9796 62.8368 43.4767C62.4862 44.2719 62.4503 45.2494 62.3177 46.2655C62.2432 46.2848 62.2791 46.2655 62.2432 46.3042C61.6523 46.1606 61.4507 45.5476 61.2298 45.034C60.6775 43.7224 60.5864 41.6156 61.0641 40.1052C61.1939 39.7186 61.7461 38.4981 61.5252 38.1281C61.4093 37.7774 61.0448 37.5758 60.8432 37.2914C60.5839 36.9213 60.3619 36.5263 60.1805 36.1124C59.7387 35.0797 59.5178 33.9365 59.0374 32.9038C58.8165 32.4261 58.4299 31.9263 58.1151 31.4873C57.7644 30.9903 57.3778 30.6396 57.099 30.0514C57.0078 29.8499 56.8781 29.5157 57.0244 29.2948C57.0631 29.1457 57.1404 29.0877 57.284 29.0463C57.5269 28.8475 58.209 29.1071 58.4492 29.2175C59.1312 29.4937 59.7056 29.7532 60.2772 30.1398C60.5367 30.322 60.8156 30.6727 61.147 30.7638H61.5335C62.1244 30.8936 62.7899 30.8025 63.3422 30.9654C64.3224 31.2802 65.206 31.7386 65.9985 32.2356C68.4404 33.7955 70.4265 35.9731 71.7557 38.5478C71.9766 38.973 72.0732 39.3624 72.2748 39.8042C72.6614 40.7154 73.1391 41.6349 73.5312 42.5157C73.9178 43.3855 74.2905 44.2719 74.8455 44.9926C75.1217 45.3792 76.2317 45.5807 76.7287 45.7823C77.096 45.948 77.6675 46.0998 77.9989 46.3014C78.634 46.688 79.2525 47.1298 79.8489 47.555C80.1527 47.7649 81.0722 48.226 81.1274 48.5988Z" fill="#4479A1"/>
</svg>
