<svg width="100" height="100" viewBox="0 0 100 100" fill="none" xmlns="http://www.w3.org/2000/svg">
<path d="M50.0139 94.623C48.8181 94.623 47.6327 94.3105 46.5848 93.7063L35.6681 87.2417C34.0368 86.3292 34.8327 86.0063 35.3702 85.8209C37.5452 85.0605 37.9848 84.8875 40.3056 83.5688C40.5493 83.4292 40.8681 83.4792 41.1181 83.6271L49.5056 88.6042C49.8077 88.7688 50.2389 88.7688 50.5181 88.6042L83.2202 69.7271C83.5223 69.5542 83.7202 69.2042 83.7202 68.8438V31.1084C83.7202 30.7313 83.5243 30.3959 83.2139 30.2084L50.5264 11.3459C50.2243 11.1667 49.8223 11.1667 49.5202 11.3459L16.8368 30.2063C16.5202 30.3855 16.3181 30.7376 16.3181 31.098V68.8355C16.3181 69.1959 16.5139 69.5396 16.8264 69.7105L25.7827 74.8834C30.6452 77.3146 33.616 74.4501 33.616 71.5688V34.3251C33.616 33.7938 34.0327 33.3834 34.566 33.3834H38.7077C39.2243 33.3834 39.6493 33.7917 39.6493 34.3251V71.5876C39.6493 78.0709 36.1139 81.7959 29.966 81.7959C28.0743 81.7959 26.5848 81.7959 22.4264 79.75L13.8473 74.8063C11.7264 73.5771 10.416 71.2834 10.416 68.8376V31.1001C10.416 28.6438 11.7264 26.3521 13.8452 25.1396L46.5827 6.25422C48.6535 5.08339 51.4035 5.08339 53.4598 6.25422L86.1556 25.148C88.2639 26.3667 89.5827 28.6521 89.5827 31.1084V68.8459C89.5827 71.2938 88.2639 73.5771 86.1535 74.8063L53.4577 93.6896C52.4098 94.2959 51.2223 94.6063 50.0118 94.6063" fill="#21A366"/>
<path d="M60.1169 68.6188C45.8086 68.6188 42.8086 62.05 42.8086 56.5417C42.8086 56.0188 43.2315 55.6 43.7565 55.6H47.9815C48.4482 55.6 48.8419 55.9396 48.9148 56.4C49.5523 60.7042 51.4523 62.875 60.1044 62.875C66.9961 62.875 69.9273 61.3188 69.9273 57.6625C69.9273 55.5583 69.0919 53.9958 58.3857 52.9479C49.4294 52.0646 43.8961 50.0917 43.8961 42.9292C43.8961 36.3313 49.4628 32.4021 58.7857 32.4021C69.2565 32.4021 74.4461 36.0375 75.1003 43.8458C75.1253 44.1167 75.0273 44.3771 74.8461 44.575C74.6669 44.7625 74.4128 44.8771 74.1503 44.8771H69.9023C69.4607 44.8771 69.0753 44.5667 68.9857 44.1396C67.9628 39.6125 65.4898 38.1646 58.769 38.1646C51.2461 38.1646 50.3711 40.7833 50.3711 42.7479C50.3711 45.1292 51.4023 45.825 61.5523 47.1688C71.6044 48.5021 76.3773 50.3854 76.3773 57.45C76.3773 64.5708 70.4336 68.6563 60.0711 68.6563" fill="#21A366"/>
</svg>
