<svg width="100" height="100" viewBox="0 0 100 100" fill="none" xmlns="http://www.w3.org/2000/svg">
<path d="M50.3361 29C42.9319 29 37.1434 29.7341 32.6987 31.0526C32.8093 30.9529 32.919 30.8521 33.0276 30.7503C33.1616 30.6154 32.846 30.5254 32.2088 30.5042C30.2971 30.4412 25.5181 31.0209 21.4933 33.0415C16.9317 35.197 6.73715 46.5165 7.00518 47.1901C7.27393 47.8637 12.2347 52.033 13.7103 53.6494C14.6495 54.7272 17.4674 64.2981 20.0166 62.6817C20.6938 62.2103 20.9683 60.339 21.1991 58.0284C21.4076 59.8187 21.613 61.6737 21.8921 63.356C22.2945 66.0506 25.7872 68.2047 26.1896 70.7643C26.688 74.4124 28.9179 76.9659 33.2863 78.5874C35.0232 80.9916 37.7232 79.7746 39.7399 80.8714C42.9592 82.6228 46.5808 81.8131 50.2032 81.8131C53.8252 81.8131 57.3125 82.4825 60.6665 80.7311C62.7305 79.6533 65.3965 80.843 67.1477 78.6432C71.5387 77.026 73.712 74.4571 74.2165 70.7643C74.6189 68.2047 77.9715 66.0506 78.3739 63.356C78.6007 61.989 78.7687 60.47 78.9407 59.0263C79.1443 60.8234 79.4066 62.2801 79.9835 62.6813C82.3986 64.2981 85.3506 54.7272 86.2898 53.6494C87.7654 52.033 92.7265 47.8637 92.9949 47.1901C93.2629 46.5165 82.9351 35.1974 78.3739 33.0415C74.3494 31.0209 69.5704 30.4412 67.6586 30.5045C67.0602 30.524 66.7793 30.6078 66.8535 30.7291C62.6438 29.6207 57.276 29 50.3361 29ZM50.4411 30.7993C58.337 30.7993 64.2319 31.61 68.3936 33.0134C68.872 33.175 69.2489 33.3661 69.6811 33.5406C72.1539 36.1135 75.4979 40.1295 76.8972 44.7582C76.9853 45.0497 77.0423 45.3549 77.1211 45.6507C77.1222 45.6553 77.1201 45.6607 77.1211 45.665V45.6791C77.2835 48.4499 78.2527 50.7778 77.9471 52.8412C77.3967 56.4332 77.1283 59.9396 76.6105 63.0609L76.6033 63.075V63.089C76.4998 63.7807 75.8222 64.8026 74.8884 65.9919C73.9545 67.1812 72.7545 68.5195 72.4456 70.4829V70.5045L72.4388 70.5181C72.0783 73.1558 70.9313 74.8353 68.2463 76.2113C68.6949 74.6111 68.9813 72.4149 68.9813 69.1475C69.1153 65.106 69.2557 63.4899 65.9017 59.448C63.3275 56.1245 59.7958 53.7818 55.8935 52.6163C55.4954 51.2132 53.3074 49.6079 50.3358 49.6079C47.367 49.6079 45.2665 51.1265 44.8347 52.5601C40.8579 53.7052 37.2524 56.0719 34.6373 59.448C31.2833 63.4899 31.5578 65.2406 31.5578 69.1478C31.5578 72.3998 31.8426 74.5942 32.2855 76.2045C29.5274 74.8191 28.3159 73.1206 27.9605 70.5181V70.4832C27.6469 68.4893 26.3942 67.16 25.4267 65.9707C24.4592 64.7814 23.769 63.7519 23.6698 63.089L23.6626 63.0746V63.0609C23.1452 59.9414 22.8757 56.4375 22.326 52.8484V52.8412C22.0204 50.7778 22.9829 48.4499 23.1448 45.6791V45.7352C23.1918 45.2181 23.2068 44.868 23.2358 44.4002C24.5273 40.2306 27.3678 36.5821 29.703 34.0537C30.5467 33.6545 31.4138 33.3072 32.2995 33.0138C36.5712 31.6046 42.5453 30.7993 50.4411 30.7993ZM31.7749 44.4916C30.2164 44.5034 28.7258 45.1336 27.6283 46.2449C26.5308 47.3562 25.9154 48.8582 25.9165 50.4234C25.9169 51.202 26.0699 51.9729 26.367 52.6921C26.664 53.4112 27.0993 54.0646 27.6478 54.6149C28.1964 55.1651 28.8475 55.6014 29.564 55.8989C30.2805 56.1964 31.0483 56.3492 31.8236 56.3487C32.3584 56.3483 32.8906 56.2749 33.4057 56.1306C34.6552 54.7822 35.9774 53.5314 37.3878 52.3845C37.6091 51.7545 37.7227 51.0914 37.7239 50.4234C37.7245 49.6447 37.5723 48.8737 37.2761 48.1541C36.9798 47.4346 36.5454 46.7807 35.9974 46.2299C35.4495 45.679 34.7989 45.2419 34.0828 44.9436C33.3666 44.6453 32.599 44.4915 31.8236 44.4912C31.8074 44.4911 31.7911 44.4915 31.7749 44.4916ZM68.6734 44.4916C67.1138 44.5016 65.6214 45.131 64.5224 46.2425C63.4235 47.354 62.8072 48.857 62.8083 50.4234C62.8104 51.2726 62.9941 52.1116 63.3472 52.8833C64.467 53.834 65.5366 54.8517 66.5525 55.9337C67.2411 56.2071 67.9749 56.3478 68.7154 56.3487C70.28 56.3479 71.7803 55.7234 72.8866 54.6123C73.9928 53.5013 74.6146 51.9946 74.6153 50.4234C74.6159 49.6448 74.4637 48.8737 74.1675 48.1542C73.8713 47.4347 73.4368 46.7808 72.889 46.23C72.3411 45.6791 71.6905 45.242 70.9744 44.9437C70.2583 44.6453 69.4907 44.4916 68.7154 44.4912C68.7014 44.4912 68.6874 44.4915 68.6734 44.4916ZM33.3007 46.2415C33.6911 46.2431 34.065 46.4001 34.3404 46.678C34.6158 46.9559 34.7704 47.332 34.7702 47.7241C34.7706 48.1163 34.6161 48.4927 34.3407 48.7707C34.0652 49.0488 33.6912 49.2058 33.3007 49.2074C33.1067 49.2076 32.9146 49.1694 32.7353 49.0949C32.556 49.0205 32.3931 48.9113 32.256 48.7735C32.1188 48.6358 32.01 48.4722 31.9358 48.2922C31.8616 48.1122 31.8235 47.9193 31.8236 47.7245C31.8235 47.5297 31.8616 47.3367 31.9358 47.1567C32.01 46.9767 32.1188 46.8132 32.256 46.6754C32.3931 46.5377 32.556 46.4285 32.7353 46.354C32.9146 46.2796 33.1067 46.2413 33.3007 46.2415ZM67.2383 46.2415C67.4323 46.2413 67.6244 46.2796 67.8036 46.354C67.9829 46.4284 68.1457 46.5376 68.2829 46.6753C68.4201 46.813 68.5289 46.9765 68.6031 47.1565C68.6773 47.3364 68.7155 47.5293 68.7154 47.7241C68.7156 47.9189 68.6775 48.1119 68.6034 48.2919C68.5292 48.4719 68.4205 48.6355 68.2833 48.7733C68.1461 48.911 67.9833 49.0203 67.804 49.0948C67.6248 49.1693 67.4327 49.2076 67.2387 49.2074C67.0447 49.2076 66.8526 49.1694 66.6733 49.0949C66.494 49.0205 66.3312 48.9113 66.194 48.7735C66.0568 48.6358 65.948 48.4722 65.8738 48.2922C65.7996 48.1122 65.7615 47.9193 65.7616 47.7245C65.7615 47.5297 65.7996 47.3367 65.8738 47.1567C65.948 46.9767 66.0568 46.8132 66.194 46.6754C66.3312 46.5377 66.494 46.4285 66.6733 46.354C66.8526 46.2796 67.0443 46.2413 67.2383 46.2415ZM48.9293 51.59C48.966 51.5881 49.0012 51.593 49.0343 51.6044C49.1704 51.6464 49.2675 51.795 49.3042 52.0177C49.341 52.2404 49.3144 52.5189 49.2303 52.7919C49.1886 52.9276 49.1339 53.0579 49.0693 53.1753C49.0048 53.2927 48.9317 53.3948 48.8543 53.4758C48.7769 53.5568 48.6966 53.6151 48.6182 53.6473C48.5397 53.6795 48.4646 53.685 48.3972 53.6634C48.2632 53.6183 48.1682 53.4683 48.1328 53.246C48.0975 53.0236 48.1246 52.747 48.2084 52.4759C48.2811 52.2383 48.3926 52.0203 48.524 51.8588C48.6554 51.6973 48.7986 51.6024 48.9293 51.59ZM51.337 51.6674C51.4716 51.6596 51.6213 51.7487 51.757 51.9176C51.8927 52.0865 52.0048 52.323 52.0716 52.5814C52.1069 52.7187 52.1285 52.8581 52.135 52.9918C52.1415 53.1255 52.1328 53.2508 52.1094 53.3604C52.086 53.47 52.0483 53.5619 51.9986 53.6308C51.9489 53.6997 51.8881 53.7441 51.8196 53.7617C51.7514 53.7803 51.6768 53.7717 51.6 53.7362C51.5233 53.7007 51.4459 53.639 51.3724 53.5548C51.2989 53.4706 51.2308 53.3654 51.1718 53.2453C51.1128 53.1253 51.0642 52.9927 51.0288 52.8552C50.9934 52.7179 50.9718 52.5784 50.9653 52.4447C50.9588 52.3109 50.9675 52.1856 50.9909 52.0759C51.0143 51.9662 51.0519 51.8743 51.1017 51.8054C51.1514 51.7366 51.2123 51.6921 51.2807 51.6746C51.299 51.6702 51.3178 51.6678 51.337 51.6674ZM50.2032 53.3824C50.2032 53.3824 50.3315 54.1957 50.8679 54.4648C51.4047 54.7344 53.9546 53.9236 53.9546 53.9236C52.747 54.8664 50.4691 54.87 50.4691 55.1399V56.4822C50.4691 57.95 50.5633 61.741 50.3569 62.5478C53.3089 62.564 57.8461 66.5979 57.8461 71.5729V71.8395C57.7117 66.9894 52.0802 63.0818 50.3361 63.0818C48.5921 63.0818 42.9534 66.8549 42.8191 71.8395V71.5725C42.8191 66.6692 47.2359 62.6842 50.1889 62.5546C49.9366 60.5693 49.9302 58.4624 49.9302 56.4822V55.1399C49.1615 54.7966 48.3814 54.5231 47.5784 54.2892C48.2399 54.4065 48.9078 54.4648 49.5313 54.4648C50.0678 54.1953 50.2032 53.3824 50.2032 53.3824ZM39.3056 58.2321C39.3149 58.2319 39.3242 58.2319 39.3336 58.2321C39.4044 58.2318 39.4746 58.2456 39.5401 58.2727C39.6057 58.2998 39.6652 58.3397 39.7153 58.39C39.7654 58.4403 39.8051 58.5001 39.832 58.5659C39.859 58.6317 39.8728 58.7022 39.8725 58.7733C39.8728 58.8445 39.859 58.915 39.832 58.9808C39.8051 59.0466 39.7654 59.1063 39.7153 59.1567C39.6652 59.207 39.6057 59.2468 39.5401 59.2739C39.4746 59.301 39.4044 59.3148 39.3336 59.3145C39.2627 59.3148 39.1925 59.301 39.127 59.2739C39.0615 59.2468 39.0019 59.207 38.9518 59.1567C38.9017 59.1063 38.8621 59.0466 38.8351 58.9808C38.8081 58.915 38.7943 58.8445 38.7946 58.7733C38.7939 58.6344 38.8467 58.5005 38.9419 58.3997C39.0371 58.2988 39.1674 58.2388 39.3056 58.2321ZM43.33 58.2321C43.3394 58.2319 43.3487 58.2319 43.358 58.2321C43.4288 58.2318 43.499 58.2456 43.5646 58.2727C43.6301 58.2998 43.6896 58.3397 43.7397 58.39C43.7898 58.4403 43.8295 58.5001 43.8565 58.5659C43.8835 58.6317 43.8972 58.7022 43.8969 58.7733C43.8972 58.8445 43.8835 58.915 43.8565 58.9808C43.8295 59.0466 43.7898 59.1063 43.7397 59.1567C43.6896 59.207 43.6301 59.2468 43.5646 59.2739C43.499 59.301 43.4288 59.3148 43.358 59.3145C43.2871 59.3148 43.2169 59.301 43.1514 59.2739C43.0859 59.2468 43.0264 59.207 42.9763 59.1567C42.9262 59.1063 42.8865 59.0466 42.8595 58.9808C42.8325 58.915 42.8188 58.8445 42.8191 58.7733C42.8183 58.6344 42.8711 58.5005 42.9663 58.3997C43.0615 58.2988 43.1918 58.2388 43.33 58.2321ZM56.4808 58.2321C56.4903 58.2319 56.4997 58.2319 56.5091 58.2321C56.58 58.2318 56.6502 58.2456 56.7157 58.2727C56.7812 58.2998 56.8408 58.3397 56.8909 58.39C56.941 58.4403 56.9806 58.5001 57.0076 58.5659C57.0346 58.6317 57.0484 58.7022 57.0481 58.7733C57.0484 58.8445 57.0346 58.915 57.0076 58.9808C56.9806 59.0466 56.941 59.1063 56.8909 59.1567C56.8408 59.207 56.7812 59.2468 56.7157 59.2739C56.6502 59.301 56.58 59.3148 56.5091 59.3145C56.4383 59.3148 56.3681 59.301 56.3026 59.2739C56.2371 59.2468 56.1775 59.207 56.1274 59.1567C56.0773 59.1063 56.0376 59.0466 56.0107 58.9808C55.9837 58.915 55.9699 58.8445 55.9702 58.7733C55.9695 58.6344 56.0222 58.5005 56.1175 58.3997C56.2127 58.2988 56.3426 58.2388 56.4808 58.2321ZM60.5056 58.2321C60.5149 58.2319 60.5243 58.2319 60.5336 58.2321C60.6044 58.2318 60.6746 58.2456 60.7401 58.2727C60.8057 58.2998 60.8652 58.3397 60.9153 58.39C60.9654 58.4403 61.0051 58.5001 61.0321 58.5659C61.059 58.6317 61.0728 58.7022 61.0725 58.7733C61.0728 58.8445 61.059 58.915 61.0321 58.9808C61.0051 59.0466 60.9654 59.1063 60.9153 59.1567C60.8652 59.207 60.8057 59.2468 60.7401 59.2739C60.6746 59.301 60.6044 59.3148 60.5336 59.3145C60.4627 59.3148 60.3925 59.301 60.327 59.2739C60.2615 59.2468 60.202 59.207 60.1519 59.1567C60.1018 59.1063 60.0621 59.0466 60.0351 58.9808C60.0081 58.915 59.9944 58.8445 59.9946 58.7733C59.9939 58.6344 60.0467 58.5005 60.1419 58.3997C60.2371 58.2988 60.3674 58.2388 60.5056 58.2321ZM40.2505 61.4654C40.2598 61.4651 40.2692 61.4651 40.2785 61.4654C40.4203 61.4667 40.5559 61.5244 40.6556 61.6258C40.7552 61.7272 40.8108 61.8641 40.8102 62.0066C40.8108 62.1491 40.7552 62.286 40.6556 62.3874C40.5559 62.4888 40.4203 62.5465 40.2785 62.5478C40.2076 62.5481 40.1374 62.5343 40.0719 62.5072C40.0064 62.4801 39.9469 62.4402 39.8968 62.3899C39.8467 62.3396 39.807 62.2798 39.78 62.214C39.753 62.1482 39.7393 62.0777 39.7395 62.0066C39.7388 61.8676 39.7916 61.7338 39.8868 61.6329C39.982 61.5321 40.1123 61.472 40.2505 61.4654ZM59.5675 61.4654C59.5747 61.4652 59.5818 61.4652 59.589 61.4654C59.6598 61.4651 59.73 61.479 59.7955 61.5061C59.8609 61.5332 59.9204 61.5731 59.9705 61.6234C60.0206 61.6737 60.0602 61.7334 60.0872 61.7992C60.1141 61.865 60.1279 61.9355 60.1276 62.0066C60.1279 62.0777 60.1141 62.1482 60.0871 62.214C60.0602 62.2798 60.0205 62.3396 59.9704 62.3899C59.9203 62.4402 59.8607 62.4801 59.7952 62.5072C59.7297 62.5343 59.6595 62.5481 59.5886 62.5478C59.4468 62.5465 59.3112 62.4888 59.2116 62.3874C59.1119 62.286 59.0563 62.1491 59.0569 62.0066C59.0562 61.8677 59.1089 61.7339 59.204 61.633C59.2991 61.5322 59.4294 61.4721 59.5675 61.4654Z" fill="#A86454"/>
</svg>
