<svg width="100" height="100" viewBox="0 0 100 100" fill="none" xmlns="http://www.w3.org/2000/svg">
<path d="M50.0985 10.4167C46.8589 10.4271 44.613 10.7125 41.8985 11.1812C33.8818 12.5771 32.4214 15.5083 32.4214 20.9104V29.1667H51.1714V33.3333H31.7089H22.6464C17.1547 33.3333 12.3485 35.9208 10.8255 42.1229C9.10472 49.2417 9.02763 53.7 10.8255 61.1333C12.1901 66.6771 15.1964 70.8333 20.6901 70.8333H28.2568V60.2C28.2568 54.0208 33.8526 47.9167 40.2651 47.9167H55.3401C60.5964 47.9167 65.7568 44.0375 65.7568 38.7979V20.9104C65.7568 15.8292 62.0922 12.0292 56.9693 11.1771C57.0964 11.1646 53.311 10.4042 50.0985 10.4167ZM39.7151 18.75C41.4255 18.75 42.8401 20.1604 42.8401 21.8792C42.8401 23.6146 41.4255 25 39.7151 25C37.9714 25 36.5901 23.6167 36.5901 21.8792C36.5901 20.1667 37.9714 18.75 39.7151 18.75Z" fill="#0277BD"/>
<path d="M48.0783 89.5833C51.3178 89.5729 53.5637 89.2875 56.2783 88.8187C64.2949 87.4229 65.7553 84.4916 65.7553 79.0895V70.8333H47.0053V66.6666H66.4699H75.5324C81.0241 66.6666 85.8303 64.0791 87.3533 57.877C89.0741 50.7583 89.1512 46.3 87.3533 38.8666C85.9866 33.3229 82.9803 29.1666 77.4866 29.1666H69.9199V39.8C69.9199 45.9791 64.3241 52.0833 57.9116 52.0833H42.8366C37.5803 52.0833 32.4199 55.9625 32.4199 61.202V79.0895C32.4199 84.1708 36.0845 87.9708 41.2074 88.8229C41.0803 88.8354 44.8658 89.5958 48.0783 89.5833ZM58.4637 81.25C56.7533 81.25 55.3387 79.8395 55.3387 78.1208C55.3387 76.3854 56.7533 75 58.4637 75C60.2074 75 61.5887 76.3833 61.5887 78.1208C61.5887 79.8333 60.2053 81.25 58.4637 81.25Z" fill="#FFC107"/>
</svg>
