<svg width="100" height="100" viewBox="0 0 100 100" fill="none" xmlns="http://www.w3.org/2000/svg">
<path d="M57.2475 50.0082C57.2475 51.9497 56.4823 53.8117 55.1202 55.1849C53.7581 56.558 51.9105 57.3299 49.9837 57.3308C48.0564 57.3308 46.208 56.5593 44.8452 55.186C43.4824 53.8128 42.7167 51.9503 42.7167 50.0082C42.7167 48.0667 43.4819 46.2047 44.8441 44.8315C46.2062 43.4583 48.0537 42.6865 49.9805 42.6856C51.9078 42.6856 53.7562 43.4571 55.119 44.8303C56.4819 46.2036 57.2475 48.0661 57.2475 50.0082ZM65.8535 15C61.479 15 55.7557 18.1439 49.9675 23.5867C44.1825 18.1733 38.456 15.0655 34.0848 15.0655C32.7523 15.0655 31.54 15.3701 30.4903 15.9759C26.0215 18.5729 25.0205 26.665 27.328 36.8204C17.435 39.8987 11 44.8208 11 50.0082C11 55.2152 17.4675 60.1504 27.3898 63.2058C25.1018 73.4005 26.1223 81.5057 30.6008 84.0994C31.6408 84.7118 32.8432 85 34.1822 85C38.5535 85 44.28 81.8561 50.0682 76.4068C55.8532 81.8234 61.5798 84.9312 65.951 84.9312C67.2835 84.9312 68.4957 84.6365 69.5455 84.0306C74.011 81.437 75.0152 73.3448 72.7077 63.1862C82.565 60.134 89 55.2021 89 50.0082C89 44.8012 82.5325 39.866 72.6103 36.804C74.8983 26.6192 73.8777 18.5074 69.3992 15.9104C68.3657 15.3078 67.1665 15.0033 65.8535 15ZM65.8372 18.5696V18.5892C66.5685 18.5892 67.1567 18.7333 67.6507 19.0051C69.8152 20.2561 70.7545 25.0145 70.0232 31.1352C69.8477 32.6416 69.5617 34.2299 69.2107 35.851C66.0907 35.0781 62.6912 34.4854 59.113 34.1022C56.968 31.1385 54.7418 28.4465 52.4993 26.0887C57.6733 21.2419 62.532 18.5827 65.8405 18.5729L65.8372 18.5696ZM34.0848 18.6351C37.3738 18.6351 42.2553 21.2812 47.4423 26.1018C45.2128 28.4596 42.9897 31.1352 40.8772 34.0989C37.2795 34.4821 33.8767 35.0749 30.76 35.8608C30.396 34.2561 30.1263 32.7039 29.9345 31.2105C29.187 25.0931 30.11 20.338 32.255 19.0706C32.8725 18.7759 33.555 18.6515 34.0848 18.6351ZM49.9512 28.6234C51.43 30.156 52.9088 31.872 54.3713 33.7453C52.9413 33.6798 51.4788 33.6339 50 33.6339C48.505 33.6339 47.0263 33.6667 45.58 33.7453C47.01 31.872 48.4887 30.1593 49.9512 28.6234ZM50 37.2232C52.405 37.2232 54.8002 37.3345 57.1565 37.5277C58.476 39.4337 59.763 41.4674 61.0013 43.6189C62.2103 45.7149 63.3087 47.8435 64.3097 49.9918C63.3087 52.1368 62.2103 54.2819 61.0175 56.3778C59.7825 58.5392 58.5053 60.5958 57.1825 62.5018C54.8165 62.7081 52.418 62.8227 50 62.8227C47.595 62.8227 45.1998 62.7081 42.8435 62.5181C41.524 60.6122 40.237 58.5752 38.9987 56.4269C37.7897 54.331 36.6913 52.2023 35.6903 50.054C36.675 47.9025 37.7897 45.7542 38.9825 43.655C40.2175 41.4936 41.4947 39.4435 42.8175 37.5375C45.1835 37.328 47.582 37.2166 50 37.2166V37.2232ZM38.1862 38.055C37.4062 39.2896 36.6262 40.5537 35.8982 41.8538C35.167 43.131 34.4845 44.4147 33.8345 45.6985C32.9733 43.5502 32.242 41.4084 31.6375 39.3223C33.7175 38.8311 35.9112 38.3923 38.1862 38.055ZM61.7812 38.055C64.04 38.3923 66.2175 38.8082 68.3008 39.3223C67.7158 41.392 66.9845 43.5207 66.1558 45.6526C65.5058 44.3754 64.8232 43.0884 64.0757 41.808C63.3445 40.5242 62.5645 39.2732 61.7845 38.055H61.7812ZM71.736 40.2655C73.309 40.7567 74.804 41.3036 76.2047 41.8964C81.8337 44.3198 85.4738 47.4898 85.4738 50.0049C85.4575 52.52 81.8175 55.7032 76.1885 58.1102C74.8235 58.6996 73.3285 59.2302 71.7847 59.7247C70.8747 56.5874 69.6853 53.3191 68.2098 49.9656C69.6723 46.6351 70.8422 43.3832 71.736 40.2589V40.2655ZM28.2023 40.2786C29.1058 43.4225 30.2985 46.6875 31.7773 50.0377C30.3148 53.3682 29.1383 56.6201 28.2478 59.7443C26.6748 59.2531 25.1798 58.7029 23.7953 58.1069C18.1663 55.6933 14.5263 52.52 14.5263 50.0049C14.5263 47.4898 18.1663 44.3001 23.7953 41.8964C25.1603 41.3069 26.6553 40.7764 28.2023 40.2786ZM66.1558 54.295C67.017 56.4465 67.7482 58.5916 68.3527 60.6744C66.2727 61.1885 64.0757 61.6241 61.8007 61.9516C62.5807 60.7235 63.3608 59.4561 64.092 58.1593C64.8233 56.8821 65.5025 55.5787 66.1558 54.295ZM33.8345 54.3605C34.4845 55.6442 35.167 56.9247 35.9145 58.2084C36.662 59.4856 37.4258 60.7366 38.2058 61.9516C35.947 61.6175 33.7695 61.1984 31.6862 60.6875C32.2712 58.6243 33.0058 56.4891 33.8313 54.3572L33.8345 54.3605ZM69.24 64.1425C69.604 65.757 69.89 67.3125 70.0655 68.8026C70.813 74.92 69.89 79.6751 67.745 80.9457C67.2672 81.2405 66.6465 81.3649 65.9152 81.3649C62.6262 81.3649 57.7447 78.7221 52.5577 73.8982C54.7872 71.5404 57.0103 68.8681 59.1228 65.9076C62.7205 65.5212 66.1233 64.9284 69.24 64.1425ZM30.7925 64.1752C33.9125 64.9415 37.312 65.5343 40.8902 65.9174C43.0352 68.8812 45.2615 71.5731 47.504 73.9277C42.3203 78.7843 37.455 81.4435 34.1465 81.4435C33.4315 81.4271 32.827 81.2798 32.3492 81.0112C30.1847 79.7668 29.2455 75.0051 29.9768 68.8844C30.1523 67.378 30.4415 65.793 30.7925 64.1752ZM45.6125 66.2711C47.0425 66.3366 48.505 66.3825 49.9837 66.3825C51.4787 66.3825 52.9575 66.3497 54.4037 66.2711C52.9737 68.1443 51.495 69.8571 50.0325 71.3963C48.5538 69.8571 47.075 68.1443 45.6125 66.2711Z" fill="#61DAFB"/>
</svg>
