<svg width="100" height="100" viewBox="0 0 100 100" fill="none" xmlns="http://www.w3.org/2000/svg">
<path d="M62.6635 61.6948C64.9472 61.498 66.7138 59.4899 66.601 57.0907C66.4776 54.6914 64.5115 52.7647 62.1149 52.7647H61.9548C60.7655 52.8071 59.6416 53.3201 58.8304 54.1909C58.0192 55.0617 57.587 56.2189 57.6288 57.4083C57.7076 58.6656 58.2221 59.6894 58.9256 60.4349C56.1746 65.7845 52.0456 69.7167 45.7877 73.0215C41.5799 75.2212 37.1358 76.0507 32.8099 75.4627C29.1927 74.9509 26.363 73.3365 24.6305 70.7404C22.037 66.8056 21.8008 62.5611 23.9611 58.3139C25.5361 55.2427 27.8959 53.0036 29.4709 51.9011C28.9955 50.5827 28.6268 49.2283 28.3684 47.8508C16.7215 56.1929 17.908 67.5957 21.4464 72.9848C24.0819 76.917 29.4709 79.4317 35.3692 79.4317C36.9442 79.4317 38.5979 79.3162 40.207 78.9224C50.4365 76.9563 58.1827 70.8218 62.6268 61.7762L62.6635 61.6948ZM76.7018 51.8617C70.6119 44.7009 61.6398 40.7687 51.4129 40.7687H50.0742C49.4101 39.3144 47.8771 38.4088 46.142 38.4088H46.0239C43.5486 38.4088 41.6192 40.535 41.7006 43.0104C41.7793 45.3676 43.7848 47.3363 46.184 47.3363H46.3783C47.2293 47.3034 48.0528 47.0263 48.7505 46.538C49.4483 46.0498 49.9907 45.371 50.3131 44.5827H51.7699C57.831 44.5827 63.5691 46.352 68.8007 49.8116C72.809 52.4497 75.6833 55.9094 77.2977 60.0411C78.7099 63.4221 78.6338 66.7269 77.1795 69.4831C74.9352 73.8064 71.1579 76.0901 66.1652 76.0901C63.0179 76.0901 59.9519 75.1057 58.377 74.3996C57.432 75.1819 55.857 76.4812 54.7178 77.2687C58.1775 78.8384 61.6792 79.744 65.0601 79.744C72.7302 79.744 78.4316 75.4207 80.5972 71.2497C82.9544 66.53 82.7602 58.5869 76.7385 51.783L76.7018 51.8617ZM36.0359 63.1071C36.1147 65.4669 38.1175 67.433 40.5194 67.433H40.6769C41.268 67.4196 41.8504 67.2881 42.3899 67.0462C42.9294 66.8043 43.415 66.4569 43.8181 66.0244C44.2212 65.5919 44.5337 65.0831 44.7372 64.528C44.9407 63.9729 45.031 63.3826 45.0028 62.7921C45.0028 60.4296 42.958 58.4688 40.5587 58.4688H40.4012C40.2437 58.4688 40.0075 58.4688 39.808 58.5449C36.5452 53.0377 35.1671 47.1342 35.6816 40.7687C35.9966 35.9702 37.5715 31.7992 40.3986 28.3395C42.7611 25.389 47.2051 23.9296 50.2343 23.8561C58.7287 23.6959 62.2698 34.2798 62.5428 38.4876L66.475 39.6688C65.5693 26.7645 57.5501 20 49.88 20C42.6771 20 36.0359 25.2315 33.3585 32.9017C29.7019 43.1259 32.1011 52.9616 36.5872 60.8286C36.1934 61.3405 35.9572 62.2434 36.0359 63.1071Z" fill="#764ABC"/>
</svg>
