<svg width="100" height="100" viewBox="0 0 100 100" fill="none" xmlns="http://www.w3.org/2000/svg">
<path d="M50 15C69.3288 15 85 30.6713 85 50C85 69.3288 69.3288 85 50 85C30.6713 85 15 69.3288 15 50C15 30.6713 30.6713 15 50 15ZM43.0438 61.6608C43.5542 63.5421 43.4987 65.3008 42.9737 66.8875L42.7842 67.4125C42.7142 67.5904 42.6325 67.7625 42.5567 67.9258C42.1483 68.7717 41.6058 69.5592 40.9379 70.2883C38.9021 72.5021 36.0613 73.3421 34.8421 72.6363C33.5296 71.8721 34.1829 68.7425 36.5454 66.2487C39.0858 63.5712 42.7288 61.8475 42.7288 61.8475V61.8388L43.0438 61.6608ZM71.9508 29.9829C70.37 23.7617 60.0596 21.7171 50.3033 25.185C44.5021 27.2471 38.2167 30.4875 33.6987 34.7138C28.3233 39.7333 27.4688 44.1083 27.8217 45.9371C29.0671 52.3858 37.9046 56.6033 41.5388 59.7329V59.7504C40.4683 60.2754 32.6254 64.21 30.7879 68.2817C28.8192 72.5692 31.0942 75.6346 32.5817 76.0254C37.1754 77.2971 41.9004 74.9754 44.4379 71.2158C46.8879 67.5379 46.6721 62.8129 45.6163 60.4942C47.0629 60.1004 48.7662 59.9254 50.9538 60.1908C57.0817 60.8908 58.3067 64.7408 58.0413 66.3158C57.7788 67.8879 56.5158 68.8067 56.0754 69.0692C55.6379 69.3346 55.5067 69.4192 55.5475 69.5971C55.5913 69.8596 55.8129 69.8596 56.16 69.8158C56.6413 69.7283 59.3567 68.5033 59.4879 65.5254C59.6192 61.7629 56.0288 57.5658 49.6442 57.6504C47.0192 57.6971 45.3538 57.9158 44.1754 58.3971C44.0879 58.2658 43.9975 58.1783 43.8692 58.0908C39.9317 53.8471 32.6254 50.8721 32.9317 45.2283C33.0192 43.1721 33.7629 37.75 46.9317 31.1875C57.7379 25.8033 66.3596 27.2938 67.8471 30.575C69.985 35.2533 63.2504 43.9625 52.0067 45.2283C47.7192 45.7096 45.4879 44.05 44.9163 43.4346C44.3067 42.7783 44.2192 42.7346 44.0004 42.8688C43.6504 43.0438 43.8692 43.6125 44.0004 43.9625C44.3504 44.8375 45.7067 46.3687 48.0721 47.1562C50.1254 47.8125 55.1596 48.2033 61.1971 45.8438C67.9754 43.2217 73.2692 35.9125 71.7379 29.7875L71.9508 29.9829Z" fill="#CC6699"/>
</svg>
