<svg width="100" height="100" viewBox="0 0 100 100" fill="none" xmlns="http://www.w3.org/2000/svg">
<path d="M50.5 28C42.3667 28 37.2833 32.9837 35.25 42.951C38.3 37.9673 41.8583 36.0984 45.925 37.3444C48.2455 38.0545 49.9027 40.1165 51.7403 42.4028C54.7319 46.1218 58.1911 50.4265 65.75 50.4265C73.8833 50.4265 78.9667 45.4428 81 35.4755C77.95 40.4591 74.3917 42.328 70.325 41.0821C68.0045 40.3719 66.3473 38.3099 64.5097 36.0237C61.5207 32.3046 58.0615 28 50.5 28ZM35.25 50.4265C27.1167 50.4265 22.0333 55.4101 20 65.3774C23.05 60.3938 26.6083 58.5249 30.675 59.7708C32.9955 60.481 34.6527 62.543 36.4903 64.8292C39.4819 68.5483 42.9411 72.8529 50.5 72.8529C58.6333 72.8529 63.7167 67.8693 65.75 57.902C62.7 62.8856 59.1417 64.7545 55.075 63.5086C52.7545 62.7984 51.0973 60.7364 49.2597 58.4502C46.2707 54.7311 42.8115 50.4265 35.25 50.4265Z" fill="#06B6D4"/>
</svg>
