<svg width="100" height="100" viewBox="0 0 100 100" fill="none" xmlns="http://www.w3.org/2000/svg">
<path d="M87.5 12.5H12.5V87.5H87.5V12.5Z" fill="#1976D2"/>
<path d="M57.2699 45.8334H29.6387V52.6334H39.5491V83.3334H47.4012V52.6334H57.2699V45.8334Z" fill="white"/>
<path d="M81.6538 54.3417C81.6538 54.3417 77.9309 51.8584 73.7225 51.8584C69.5142 51.8584 67.9996 53.8584 67.9996 55.9959C67.9996 61.5125 83.3767 60.9605 83.3767 72.0625C83.3767 89.1646 59.9309 81.5792 59.9309 81.5792V73.375C59.9309 73.375 64.4142 76.7542 69.7913 76.7542C75.1684 76.7542 74.9642 73.2375 74.9642 72.7542C74.9642 67.6521 59.7246 67.6521 59.7246 56.3417C59.7246 40.9646 81.9288 47.0313 81.9288 47.0313L81.6538 54.3417Z" fill="white"/>
</svg>
